<svg xmlns="http://www.w3.org/2000/svg" xmlns:xlink="http://www.w3.org/1999/xlink" viewBox="0 0 92.11 2070.93"><defs><clipPath id="a" transform="translate(-7.89 70.93)"><rect width="100" height="2000" style="fill:none"/></clipPath></defs><g style="clip-path:url(#a)"><rect x="67.11" y="70.93" width="25" height="2000" style="fill:red"/><rect width="81.32" height="2070.93" style="fill:none"/><path d="M39.82-70.82c.67-.51.85.84,1.29,1.21-.29,1.77-.49,3.83-1.29,3.63Z" transform="translate(-7.89 70.93)" style="fill:red;fill-rule:evenodd"/><path d="M13.7,81.42c.13,5.73-1.22,5.91-1.29,10.87-.35,4.5.67,3.9,1,6a591.78,591.78,0,0,0,1.29,74.91c-.68-.57-.61,1.73-.64,3.63-1.45-.22-2.45-2.1-3.22-4.84C9.54,145.28,9.66,120.68,7.89,94.7,11.59,96.86,10.34,80.53,13.7,81.42Z" transform="translate(-7.89 70.93)" style="fill:red;fill-rule:evenodd"/><path d="M9.51,360.51c-.6,1.78-.49,6.24-1.62,6Q8.1,361.3,9.51,360.51Z" transform="translate(-7.89 70.93)" style="fill:red;fill-rule:evenodd"/><path d="M87.22,384.67c.49,4.87.63,15.09-.65,16.91a130.81,130.81,0,0,1,2.26,24.17,6.89,6.89,0,0,1-1.94,2.42C84.45,416,80.53,387,87.22,384.67Z" transform="translate(-7.89 70.93)" style="fill:red;fill-rule:evenodd"/><path d="M20.79,615.44c.32-5.12.87,4.25,1,0,.72.87.15,6.87-.65,6C20.94,619.71,21.49,615.23,20.79,615.44Z" transform="translate(-7.89 70.93)" style="fill:red;fill-rule:evenodd"/><path d="M16.92,755.57c.84-.33,1.39.45,1.29,3.63C17.37,759.54,16.82,758.76,16.92,755.57Z" transform="translate(-7.89 70.93)" style="fill:red;fill-rule:evenodd"/><path d="M27.88,954.92c-1.15,7.18,1,6.35-.64,10.88,1.24,13.05-.09,30.27.32,43.5.21,6.55,1.26,12.61,1.61,19.33,1.4,26.72.82,56.42,1,83.36.09,15.54.37,31.56-.64,44.7-4.88-11-2.63-37.94-2.26-55.57a46,46,0,0,0-1.29-8.46c1.07-46-4.36-79.13,0-117.19-.87-6.49-.15-12.09-1-19.34.15-1.07.29-2.15.65-2.41C26.08,952,27.19,954,27.88,954.92Z" transform="translate(-7.89 70.93)" style="fill:red;fill-rule:evenodd"/><path d="M37.24,1118c.45,4,.68,12.49-1,12.07.9,4.57-.29,9.65,0,15.7-3.23,33.8-2.07,79.33-4.19,122-1.51,1.6-1.44-2.69-1.94-4.84.93-17-1.73-29.53-.32-45.91-2-21,1.88-45.34,2.58-65.24,1.47-7.67,2.2-22,1.93-35C34.76,1115.58,36.49,1116.78,37.24,1118Z" transform="translate(-7.89 70.93)" style="fill:red;fill-rule:evenodd"/><path d="M38.52,1236.44h1c.77,10.35-.48,20.35.33,30.19-1.36-1.74-1.58-7.78-2.58-10.87C37.7,1248.19,37.25,1242.31,38.52,1236.44Z" transform="translate(-7.89 70.93)" style="fill:red;fill-rule:evenodd"/><path d="M31.11,1271.47c1.57-.88,1,10.71.65,13.29C30.74,1280.61,31.73,1276.28,31.11,1271.47Z" transform="translate(-7.89 70.93)" style="fill:red;fill-rule:evenodd"/><path d="M29.5,1516.73c1.17,1.54,3.85,9.32,1.93,14.49,2.27,11.69,1.32,25.64,2.26,41.09-1.31-1.14-1.12,6.54-.64,8.46,1.08-.5-.86-4.69.64-3.63.61,10,.07,19.83,1,26.58-.53.34-.56-1.15-1-1.2-.38.19-.27,2.19-.33,3.61-.63-.41-.48-10.56.33-6,0-2.16-.39-2.54-.33-4.83-.45,4.51-1.82-1.46-1.6,6-.47-.27-.12-3.6-.65-3.62.29-2.12,1.13-2.22,1.61-3.62-.64-3.66-.09-18.13-1.61-14.51-1-5,2.33-15.85.32-20.53C31.94,1544,29.81,1535.81,29.5,1516.73Z" transform="translate(-7.89 70.93)" style="fill:red;fill-rule:evenodd"/><path d="M34.66,1608.55c-.24,2.45-1,4.93-1.61,2.42C33.09,1608.33,33.86,1608.38,34.66,1608.55Z" transform="translate(-7.89 70.93)" style="fill:red;fill-rule:evenodd"/><path d="M35.62,1617c.16,3.79-.86,3.19-1,6C33.8,1621.28,34.79,1616.42,35.62,1617Z" transform="translate(-7.89 70.93)" style="fill:red;fill-rule:evenodd"/><path d="M33.36,1633.92c1.21.54-.11,6.87.65,10.88C32.94,1644.38,33.51,1637.83,33.36,1633.92Z" transform="translate(-7.89 70.93)" style="fill:red;fill-rule:evenodd"/><path d="M34,1652c.53,2,1.35,3,1.29,7.26C34.57,1658,34.13,1655.63,34,1652Z" transform="translate(-7.89 70.93)" style="fill:red;fill-rule:evenodd"/><path d="M21.11,1781.32c-.25,3.91-.89,6.32-1.93,7.25C19.9,1786.45,19.92,1781.69,21.11,1781.32Z" transform="translate(-7.89 70.93)" style="fill:red;fill-rule:evenodd"/><path d="M80.44,1555.39c.82-10.44,1.71-21.62.33-31.41,1-22.45,3.07-49.79,1.29-72.49,1.16-8,0-17.11.64-25.37,2.83-39.22-.67-79.94-4.51-118.4v-8.46c-.93-11.69-2.78-23.16-3.55-36.25-1.58-27-.26-59,.64-87,.51-.12,1.12.15,1-2.42,1.6-27.33,5.11-53.26,5.16-82.16,0-7-1.06-13.68,0-20.54-1-7.35-1.6-16.56-2.26-25.37.85-16.51,0-43-2.57-56.78.89-9.58-.52-18.07-.65-27.79-.69-53.92-.44-124.9-1-180-1.1-5-.65-8.76-1.29-14.5,1.55-15.54.16-44.72-1.29-60.4,1.58-8.93.46-24.06,1.29-37.46.65-10.48,2.56-19.94,1-27.79.74-23.58-1-48.55,1.29-74.9.91-10.69,2.45-21.49,3.22-32.63-.49-15.08.1-29.28-.64-44.7-.38-.19-.92.21-1-1.21.59-9-2.11-23.27-1-35-2.2-18.87-6-35.44-5.16-66.44-3.33-12.17-2.18-38.74-3.55-55.58.57-12.92,1-34.1,3.55-43.49.36-8.32.88-16,.64-26.58.35-3.13,1.17-4.5,1.29-8.45a32.64,32.64,0,0,1-1-7.26c2.21-17.8,2.05-46.37.65-67.65,1.23-2.43-.3-8.12,1-10.88-1.63-35.75-5.4-74.68-1.61-111.16,4-6,6-16.07,10.32-18.12.69-3,.8-8.27,1.94-9.66,1,.58,1.26-1.72,1.93-2.42,1.71-10.76,4-31.63,1.62-43.5-3.14-5.89-6.32-13.07-9.68-3.62C71.81-23.82,64-8.94,62.39-38.19c-3-4.56-4.86-9.6-9-7.24-1.89,7.21-4.81,10.9-6.45,21.73-.61-2.26-.81-.14-1.61,0C45-18.6,45.48-10.91,44-10.4c.4-12.79-2.16-14.48-2.58-24.17-3-10.75-8.07-6.64-10.64-14.5.41-3.14.7-3.64.32-7.24-2.16-2-2.81,2.51-4.2-3.63-1.31,2.16-1.11,5.28-1.28,9.67-3.45,3.59-4.55,16-6.13,26.57,0,31.3-4.3,51.87-3.55,78.53-2,.75-1.8,10.53-1,15.71-.8,2.22-2.56.85-2.9,4.84.89,3.34,1.35-1.09,2.26-1.21.71,4.45,1.21,14.77.32,18.12,1.63,8.12,1,23.58,2.58,33.84C15.92,130,15.1,135.8,15,144.24c1.15.15,1.84,2,2.59,3.62,1.86,23.1-2,35.56,0,58-.95,6.12-1,15.52-1,25.37-3.83,24.6-4.08,61.34-1.29,91.82-3.32,8.46-1.17,22-1.94,32.63-1.21,16.81-4.11,33.52-2.25,50.74,0,2,.89.67,1,2.41-.31,12.63.65,29.2.65,43.49,0,10.2-1.24,20-.65,30.21.69,11.84,2,20.75,4.84,27.79-.13,9.21,3.7,19.64,1.94,29,.38,1.81,1.33,1.42,1.29,4.83.09,2.38-.44,2.41-.65,3.63,1.2-.11.92-1.35,1.93,0-.6-6.76-.48-10-1.61-15.7a26.61,26.61,0,0,0,.33-4.84c-2-13.13-4.33-28.46-5.49-45.9-1.11-16.81.41-34.27-1.61-45.92.12-2.76,1.29-1.61,1.61-3.63-1.12-6.28.4-11.83,0-19.32-.28-5.27-1.83-9.72-1.93-15.71C12.53,384.61,14,377,14,362.92c2.15-5.78.78-19.67,2.9-20.53,1.11,2.69-1.33,8.56,0,12.07.33-2.4.56-5.15,1.29-6,2.18,12.38,6.43,17,7.74,32.62a176.71,176.71,0,0,0,1.61,30.21c-1.93,42-.85,100.87,1.61,142.57a200,200,0,0,0-.32,31.41c-4.27,14.44,1.28,49.22-1.29,62.82,3.27,6.2,1.7,26.22,0,32.62,2.24,2.43,1.37,12.13.65,18.12-.48,0-1-5.09-1,0-.1,2.38.44,2.4.64,3.63-.7,2.19-1.23,5.05-2.25,6-.23,4.48.55,5.18.32,9.66a9.66,9.66,0,0,1-1.61-4.82c-.44-6.49.6-7.41,1-10.88-.8.15-1,2.31-1.29-1.2,2-1.63-.49-7.76,1.29-10.88a13.44,13.44,0,0,0,.65,4.84c-.28-4.74-.64-10.38-1-14.51,0,1.29-.15,3.07-.32,1.21-3.71,42.59-2.05,79.94-1.29,122-.79,2.29-1,6.73-1.29,10.88.83,12.16.82,20.85,4.19,24.16-.06-14.61-.77-26.12-.64-49.53.85-4.86,2-8.62,3.87-9.67,1.22,18.76-1,38.89,0,56.79.14,2.57.6,3.61.64,6,.24,15-.57,22.47-1,32.62-.77,19.66-.09,40.77-.64,60.41-.12,4.33-1.63,8.6-.32,13.29.86-10.67,1.22-22.45.64-30.2,1.11-11.08,1.5-30.14,1.62-43.5,2.68-26.49.64-46.33,1.93-78.53,1.71-1.63,1.38-5.51,1.61-10.88,1.93.38,2.68-3.63,2.9-9.66-.48-3.35-1.32,2.1-1.61-1.21.58-3.46,1.22-6.72,2.58-7.25,0,3.21.12,6.9-.32,8.46,1.53-1.11,1.39-8.5,3.22-8.46.84,24,3.83,45.24,2.9,68.87-.88,3.13-2.18,4.7-2.9,8.46,1.35,2.53,2.12-6.19,3.55-7.25,1,7.07,1,18,2.26,24.16-.48,1.43-1.44,1-1.29,4.84-.79,22.63,1,37.87,1.61,55.57,1,26.84-.68,51.08.64,81-.24,1.92-1.57-.28-1.29,3.62-.47,17.87.84,43.41-3.86,53.16.3,7.6-.9,9.54-1.29,14.5.25,2.25.53,4.42.64,7.24-1.24,2.64-.4,10.77-.64,16.92-.28,6.85-1.82,12.3-2.26,19.34a96.81,96.81,0,0,0,1,22.94c.86,7,1.15,17.3,3.22,21.75.52-2.06,1-4.28,1.61-6-1.21-7.89-3.65-17-3.54-27.78.06-6.82,2.06-11.1,1.29-18.13h1c-1.27-37.11,7.11-54.62,6.13-90.62a241.12,241.12,0,0,1,5.16-25.36c-.36,12.61,1.53,16.81,1.29,29,4.69,30.78,1,72.67,2.58,107.53-1.59,25.94.69,48.22,1,73.7-1.83,3.64-1.41,15.69-1.94,24.16.2,2.47,1.63.34,1.29,4.84-.24,18.17-5.38,19.54-6.45,32.61-.19,2.35.35,6.53.32,9.68,0,4.52-.76,13.26-.64,16.9.41,13.19,2.61,25.49,2.58,39.88-.06,20.58-.37,43.9-.65,66.45-2.09,18.42.27,46.5-1.61,70.07,2.11,18.37-.84,48.07,2.9,65.24.1,3.18-1.25,1-1,4.83,1.59,10.42.89,22.24,3.54,29a26.29,26.29,0,0,1-.32,6c3.22,32.15,8.08,65.77,6.77,107.52-3.2,13.39-6.71,25.59-9.67,39.88-3.95,11.77-8.27,22.19-10,42.27,2,21.64,7.3,36.9,11,48.33.52,8,2.66,11.22,3.88,13.29,1.64,18.71,2.84,34,3.54,53.16,1.41,38.46-7.52,61.74-6.45,99.07-.32,1.62-.87,2.37-1,4.84,2,2.26-1.52,14.83,1.62,16.91,2.1-6.29,3.49-20.07,3.22-31.41,1.85-3.8.79-10.54,1.29-16.92.63-8,2.87-15,3.55-21.75.19-1.94-.39-4.09-.32-4.83.44-5.38,1.8-9.79,1.93-16.92.3-15.9-.28-20.79-1-35-1.38-28.83-2.45-58-9-67.65.06-10.81-4.59-14.11-6.12-23-.35-12.2-1.33-9.7-1-21.74,7.24-24,16.53-40.38,21.61-72.49-.25-7.6-.35-14.92,1-19.33,4.9,34.25-1.17,101.37,4.2,138.94,1.54-4.11.64-9.44.64-14.5,0-27.82.44-58.5,0-91.82-.27-19.81-3.38-38.47-2.9-60.41.28-12.82,1.47-22.8,1.29-37.45.5-.52.27-3.79,1.29-2.42-.62-17.11,5.23-31.44,2.25-47.11C79.81,1554.86,79.79,1557.82,80.44,1555.39ZM55.61-21.27c-.07,1.51-.64,1.21-.64,0-.38.19-.27,2.19-.32,3.61-.67-.32-.3-4.49-1-4.83a51,51,0,0,0-1.29,7.25C51.08-22,54.53-26.45,55.61-21.27Zm-10,77.32c-3.08,1.12-3.55-15.6-3.22-19.34s1.82-10.14,2.9-6C46.49,35.22,44.28,48.93,45.62,56.05Zm4.19,33.82c.75-.39,1.24.2,1.61,1.22-1.49,6.67-.68,21.78-3.22,26.57C48.57,106.07,49.56,102.91,49.81,89.87Zm-5.16,38.66c.88-.88.65,2.4,1.29,2.43-.64,1.59-.75,5.24-1.61,6C44.07,132.8,44.81,132.35,44.65,128.53Zm7.74,3.63c-1,13.64-2.19,29-1.93,44.71.21,13.54,2.86,26.53,1.93,37.44-1.94-12.05-2-31.08-4.51-41.07.67-11.87,2.23-26.11,1-35C50.3,137.22,50.52,131.6,52.39,132.16Zm-8.06,8.45h1c.29,5,.81,14.12-1,14.51C43.61,149.13,43.88,146.83,44.33,140.61Zm-1,15.71c.29.94.73,1.3,1.29,1.21C44.84,162.87,42.91,161.7,43.36,156.32Zm-6.45,1.21c-1.09,1.53-.13,5.91-.32,8.46-.36,4.94-1.75,7.91-1.93,12.08-.35,7.67,1.51,10.66,1.29,20.53,0,3.11,1.2,2,1.61,3.63,2.44,45.67,3.5,87.47.32,140.16-3.25-2.15-2-17.64-6.77-15.72-1.21-28.56,1.35-50-1.94-73.69,0-16.51,1.46-30.11,1.62-49.54C31,183.43,31.2,163.62,36.91,157.53ZM27.56,242.1c.09,4-1,3.5-1.29,6.05.19,7.94-.76,11.63-1.29,16.91-.69,12.65,1.65,38.44-1,47.12.68-7.64-2.46-12.42-1.61-20.54-4.18-11.06-5.82-22.69-4.19-47.12.35-5.2,1.87-10.57,2.26-15.71.71-9.57-.54-19.3,1.29-24.16C26.18,207.83,24.59,233.52,27.56,242.1Zm25.15-24.16c.92,2.75.19,4.67.65,9.67C51.85,227.2,52.65,220.92,52.71,217.94ZM55,398c.11,16.21,1.22,31.89.64,49.53-.52,16.37-2.59,25.15-2.25,45.91.1,6.08,1.29,10,1.61,19.33.36,10.42-.94,20.42,1.29,27.79-.57,11.63-1.58,22.91.32,32.62-2.53-3-4.84-17.29-6.77-26.58C50.4,494.66,48.43,444.44,54,398ZM57.23,639.6c.46.26.11,3.6.64,3.61-1.11,12.32.46,22.2.65,31.42.09,4.39-.86,8.81-1,14.5-.15,7.58,1.65,17.52-.65,20.54,1.4,7.05-.23,20,1.29,27.79-1.6-.37-2.88-12.32-4.51-4.83.65,3.2,2.17,3.16,2.9,6,.08,7.56-.52,12.55-2.25,13.3C52,741.84,51.54,711.89,53,698.79c-1.07-8.93-.16-16.2.32-25.37-.69-.57-.62,1.73-.65,3.63-1.52-11.22,3.55-23,2.9-35C55.81,639.92,57.15,642.11,57.23,639.6Zm-1.29,116c-.19,2.52-.68,3.92-1,6q-1.39-.79-1.61-6C54,752.2,55,753.82,55.94,755.57ZM70.45,818.4c.14,17.39.85,35.19,1.29,52,.62,24-.64,55.52,1.29,79.75-.74,9-1.67,29.33.64,36.24-.62,18.43,1.37,36.49,2.26,53.16-1,22.57,1.38,47.35-.32,72.49-.39,5.67-1.85,9.91-2.26,15.71-.35,5,.05,11.19-.32,16.91-.54,8.24-2.13,16.19-2.58,24.17-.21,3.66.24,8.5,0,12.08-.17,2.38-1.06,3.87-1.29,6-.73,6.71-.17,14.94-1.29,20.53.89,19.86.52,37.81,1.29,61.62-1.78-10.67-3.3-22.25-7.1-25.36-.07-12-.55-23.25,0-35,.41-8.51.94-11.42.65-25.38-.13-6.3-.9-12.26-1-18.12-.19-15.66,1-31.78,1-47.11,0-13.1-1.32-26.17.32-36.26-.83-21,1.4-47.07-1.61-65.23,1.3-14.91-.55-30.75-.64-43.5,3.06-11.89,6.57-28,5.48-49.53-.89-17.41-6.12-27.61-7.74-41.08,1.28-7.35-.5-12.71-.33-20.54.27-11.79,2.52-25.18,1.3-42.29,3.34,2.37,5.86,2.35,8.38,6C68.92,824,69,818.42,70.45,818.4Zm-1.29,459.11c.76.39,1.21,1.92,2.26,1.21-1.22,6.33.68,13.89,1.61,19.32.35,18,1.85,31.73,2.25,49.55-.4,3.73-1.12,6.23-1.61,9.66-.08,12.35-.53,24.66-.64,36.25-.13,12.56.69,25.66.64,37.45,0,13.1-2.51,26.4-.32,37.46-.46,13.06-2.39,31.14-1.29,42.28-1.73,10.87-1.13,29.21-2.58,43.5,1.23,27.76,5.74,45.27,2.9,76.11-1.92-10.76-.48-27.17-2.9-35,.52-11.55-1.81-22.18-2.58-30.2-.66-6.89-.63-15.69-1.29-23-.81-8.88-2.15-13.86-2.26-27.79,0-5.52,0-10.76,0-16.91-.09-12.81,1.78-27.11,1.62-37.45,0-2.81-.7-5.7-.65-8.46.13-6.54,1.57-14.48,1.61-21.75,0-1.11-.69-4.86-.64-6,.14-3.58,1.06-7.42,1.29-10.86,1.54-23.28.81-54.68,1.29-83.36.1-5.84.75-11.16.64-16.92-.07-3.87-.73-8.13-.64-12.08C68.05,1292.49,70.07,1285.73,69.16,1277.51Zm9.35,282.71c0,3.31.54,2.43,0,4.84C77.27,1566,77.27,1559.27,78.51,1560.22Z" transform="translate(-7.89 70.93)" style="fill:red;fill-rule:evenodd"/><path d="M21.76,578c-.19-2.52-.68-3.91-1-6,1.06-5.58-1.2-17.36.64-21.75.4,17,.42,30,.33,45.91C20.52,593.5,21.07,578.2,21.76,578Z" transform="translate(-7.89 70.93)" style="fill:red;fill-rule:evenodd"/><path d="M20.79,608.18c.08-4.33-1-4.42-1-8.46,1.08,1.61,1.13,7.07,2.26,8.46C22,611.29,21.52,606.52,20.79,608.18Z" transform="translate(-7.89 70.93)" style="fill:red;fill-rule:evenodd"/><path d="M31.43,1602.52c1.65,5.89.79,21.19,1.93,29C31.57,1623.66,32.42,1611.72,31.43,1602.52Z" transform="translate(-7.89 70.93)" style="fill:red;fill-rule:evenodd"/></g></svg>