
<svg xmlns="http://www.w3.org/2000/svg" viewBox="0 0 92.21 2000"><path d="M92.21,0H17.15c8.94,53.32,20.76,67.39,18.72,149.16Q35,158.59,34.2,168c-1.07,13.19-2,26.39-2.68,39.6s-.77,26.45-.49,39.7,1.07,26.53,2.15,39.82,2.39,26.59,3.67,39.89,2.43,26.59,3.19,39.87,1.15,26.53,1.08,39.76-.64,26.45-1.47,39.66-2,26.38-3.51,39.56q-1.14,9.87-2.49,19.75c-1,6.57-1.86,13.15-2.93,19.73-4.07,26.3-9,52.56-12.77,78.88Q15,624,12.9,643.78c-1.39,13.18-2.52,26.38-3.76,39.57-2.4,26.41-4.92,52.79-6.82,79.27l-.67,9.93-.31,5c-.1,1.66-.21,3.28-.27,5.08-.13,3.49-.33,7-.39,10.5L.5,803.4C.37,817,.57,830.51,1,843.91c.81,26.8,2.49,53.37,4.58,79.9q6.3,79.56,17.52,158.47Q25.86,1102,29,1121.73l3.21,19.7,3.42,19.69,3.62,19.67c1.29,6.55,2.5,13.1,3.86,19.65q1.38,6.76,2.82,13.53c.53,8.45,1,16.89,1.24,25.34.44,12.67.58,25.35.5,38s-.35,25.36-.84,38c-.94,25.35-2.91,50.71-5.12,76.06s-4.61,50.72-6.22,76.07c-.41,6.34-.81,12.68-1.12,19s-.65,12.68-.9,19l-1.38,38c-.91,25.36-1.85,50.72-2.51,76.07s-.86,50.72-.48,76.07,1.19,50.72,2.31,76.07q.46,10.59,1,21.18c-2.16,20-5,41.32-8.64,63-4.73,28-14.29,56-18.87,84.46A380.74,380.74,0,0,0,0,2000H92.21V0Z" style="fill:red"/></svg>
