<svg xmlns="http://www.w3.org/2000/svg" xmlns:xlink="http://www.w3.org/1999/xlink" viewBox="0 0 119.32 2199.07"><defs><clipPath id="a" transform="translate(-24.24 120.18)"><rect width="100" height="2000" style="fill:none"/></clipPath></defs><g style="clip-path:url(#a)"><path d="M102.42,782.89c2.48,12.68,4.32,25.36,6.06,38l1.25,9.51,1.14,9.51c.79,6.34,1.4,12.68,2.09,19,2.62,25.36,4.5,50.71,5.91,76.07s2.24,50.71,2.69,76.07c.19,12.68.35,25.35.12,38s-.7,25.36-1.49,38c-1.51,25.35-4.34,50.71-6.85,76.07s-4.73,50.71-5.56,76.07c-.44,12.67-.58,25.35-.5,38s.35,25.36.84,38c.94,25.35,2.91,50.71,5.12,76.06s4.61,50.72,6.22,76.07c.41,6.34.81,12.68,1.12,19s.65,12.68.9,19l1.38,38c.91,25.36,1.85,50.72,2.5,76.07s.87,50.72.49,76.07-1.19,50.72-2.31,76.07c-.56,12.68-1.28,25.36-2,38l-1.17,19-.61,9.51-.69,9.51c-1.82,25.36-4,50.71-6.68,76.07s-5.75,50.71-10,76.07H97.58c-4.26-25.36-7.28-50.71-10-76.07s-4.86-50.71-6.68-76.07l-.69-9.51-.61-9.51-1.17-19c-.68-12.68-1.4-25.36-2-38-1.12-25.35-2-50.71-2.31-76.07s-.12-50.71.49-76.07,1.59-50.71,2.5-76.07l1.38-38q.38-9.51.9-19c.31-6.34.71-12.68,1.12-19,1.61-25.35,4-50.71,6.22-76.07s4.18-50.71,5.12-76.06q.74-19,.84-38c.08-12.68-.06-25.36-.5-38-.83-25.36-3-50.72-5.56-76.07s-5.34-50.72-6.85-76.07q-1.19-19-1.49-38c-.23-12.68-.07-25.35.12-38,.45-25.36,1.3-50.71,2.69-76.07S84.42,884.32,87,859c.69-6.34,1.3-12.68,2.09-19l1.14-9.51,1.25-9.51c1.74-12.67,3.58-25.35,6.06-38Z" transform="translate(-24.24 120.18)" style="fill:red"/><path d="M119.5-28.61c2.7,13.42,4.46,26.79,6.09,40.14s2.76,26.67,3.7,40c1.9,26.61,2.77,53.14,2.89,79.62q.09,19.88-.38,39.69c-.32,13.22-.75,26.43-1.46,39.63s-2,26.35-3.59,39.49-3.76,26.26-6.16,39.36-5,26.19-7.62,39.29c-1.26,6.55-2.56,13.1-3.71,19.66s-2.35,13.11-3.35,19.68c-2,13.13-3.69,26.28-4.87,39.46S99.18,433.75,98.81,447a783.78,783.78,0,0,0,1.88,79.44c1.81,26.52,4.6,53,6.34,79.49,1,13.22,1.61,26.43,2.14,39.61.25,6.59.4,13.18.58,19.76l.56,19.74c.17,6.58.44,13.13.66,19.7l.34,9.84.41,9.81c.43,13.1,1.1,26.12,1.61,39.09.29,6.46.58,12.89.81,19.37s.52,13,.75,19.56c.55,13.13.91,26.25,1.31,39.44s.61,26.36.81,39.56.31,26.41.33,39.63c.19,52.87-.55,105.83-2.61,158.87q-.77,19.89-1.83,39.79l-1.11,19.91-1.28,19.92L109,1179.43c-.56,6.64-1,13.28-1.67,19.93-1.18,13.3-2.49,26.61-4.19,39.93l-6.36.31c-3-13.09-5.61-26.21-8.07-39.33-1.27-6.56-2.4-13.13-3.59-19.69l-3.38-19.7q-6.51-39.42-11.72-78.92Q59.58,1003,53.2,923.74c-2.16-26.43-4-52.86-5.24-79.39-.64-13.24-1.1-26.57-1.45-39.87-.13-6.7-.26-13.4-.32-20.11s.11-13.54.19-20.3c.7-27,2.45-53.64,4.27-80.25,1-13.29,1.83-26.58,3.05-39.83s2.75-26.49,4.55-39.71c3.51-26.43,8.27-52.77,12.29-79.11,2-13.17,3.85-26.34,5.35-39.53s2.68-26.37,3.54-39.58,1.46-26.43,1.58-39.67-.18-26.51-.89-39.8S78.33,340,77.2,326.68,74.82,300,73.85,286.73s-1.58-26.6-1.76-39.87.15-26.51.92-39.73,1.93-26.41,3.16-39.6,2.69-26.36,4.34-39.52c3.31-26.32,7.42-52.59,12.65-78.78q3.9-19.65,8.73-39.23c3.33-13,6.81-26.07,11.26-39Z" transform="translate(-24.24 120.18)" style="fill:red"/><path d="M56.49-46.5C65.84,64.3,89,45,78.44,199.38c-2.75,40.34,65.12-98.54,65.12-98.54l-20.09-221S54.4-71.31,56.49-46.5Z" transform="translate(-24.24 120.18)" style="fill:red"/><path d="M84.52,1663.63s1.37,91.58-15.64,192.38A765.18,765.18,0,0,1,50,1940.47c-6.1,21.12-25.76,125-25.76,125l109.4,13.4Z" transform="translate(-24.24 120.18)" style="fill:red"/></g></svg>
