<svg xmlns="http://www.w3.org/2000/svg" viewBox="0 0 40.66 2000"><rect width="40.66" height="2000" style="fill:none"/><path d="M16,.11c.34-.49.43.81.65,1.17C16.47,3,16.36,5,16,4.78Z" style="fill:red;fill-rule:evenodd"/><path d="M2.9,147.13c.07,5.54-.61,5.71-.64,10.5-.17,4.35.34,3.77.48,5.84-.59,25.83-.31,50.92.65,72.34-.35-.55-.31,1.66-.33,3.51-.72-.22-1.22-2-1.61-4.68C.82,208.81.89,185.05,0,160,1.85,162,1.22,146.27,2.9,147.13Z" style="fill:red;fill-rule:evenodd"/><path d="M.81,416.66c-.3,1.72-.25,6-.81,5.84C.07,419.12.34,417.18.81,416.66Z" style="fill:red;fill-rule:evenodd"/><path d="M39.66,440c.25,4.7.32,14.57-.32,16.33.55,6.54,1.13,12.78,1.13,23.34a7.45,7.45,0,0,1-1,2.33C38.28,470.22,36.32,442.21,39.66,440Z" style="fill:red;fill-rule:evenodd"/><path d="M6.45,662.86c.16-4.94.43,4.11.48,0,.36.84.08,6.64-.32,5.82C6.52,667,6.8,662.66,6.45,662.86Z" style="fill:red;fill-rule:evenodd"/><path d="M4.51,798.2c.43-.33.7.43.65,3.5C4.74,802,4.46,801.27,4.51,798.2Z" style="fill:red;fill-rule:evenodd"/><path d="M10,990.72c-.58,6.93.51,6.13-.33,10.5.62,12.6,0,29.24.16,42,.11,6.33.63,12.18.81,18.67.7,25.81.41,54.49.48,80.51.05,15,.19,30.47-.32,43.16-2.44-10.62-1.31-36.63-1.13-53.67-.12-3.36-.35-6-.64-8.16.53-44.42-2.18-76.42,0-113.18-.44-6.26-.07-11.67-.48-18.67a8.05,8.05,0,0,1,.32-2.33C9.1,987.89,9.65,989.81,10,990.72Z" style="fill:red;fill-rule:evenodd"/><path d="M14.67,1148.24c.23,3.88.34,12.08-.48,11.67.45,4.41-.15,9.32,0,15.16-1.62,32.64-1,76.61-2.1,117.86-.75,1.54-.71-2.6-1-4.67.47-16.44-.86-28.53-.16-44.35-1-20.31.94-43.78,1.29-63,.74-7.41,1.1-21.25,1-33.84C13.43,1145.87,14.3,1147,14.67,1148.24Z" style="fill:red;fill-rule:evenodd"/><path d="M15.32,1262.59h.48c.39,10-.24,19.66.16,29.16-.68-1.69-.79-7.52-1.29-10.5C14.9,1273.94,14.68,1268.26,15.32,1262.59Z" style="fill:red;fill-rule:evenodd"/><path d="M11.61,1296.43c.78-.86.51,10.34.32,12.83C11.43,1305.25,11.92,1301.07,11.61,1296.43Z" style="fill:red;fill-rule:evenodd"/><path d="M10.8,1533.29c.59,1.48,1.93,9,1,14,1.13,11.28.66,24.76,1.13,39.68-.66-1.11-.56,6.31-.32,8.17.54-.48-.43-4.53.32-3.51.3,9.66,0,19.15.48,25.67-.26.33-.28-1.1-.48-1.16a17,17,0,0,0-.16,3.49c-.32-.39-.24-10.2.16-5.83,0-2.09-.2-2.46-.16-4.67-.23,4.36-.92-1.41-.81,5.84-.23-.26-.06-3.48-.32-3.5.15-2,.56-2.14.8-3.5-.32-3.53,0-17.5-.8-14-.52-4.77,1.17-15.3.16-19.83C12,1559.59,11,1551.7,10.8,1533.29Z" style="fill:red;fill-rule:evenodd"/><path d="M13.38,1622c-.12,2.37-.48,4.76-.8,2.34C12.6,1621.74,13,1621.79,13.38,1622Z" style="fill:red;fill-rule:evenodd"/><path d="M13.86,1630.12c.08,3.67-.43,3.09-.48,5.84C13,1634.25,13.45,1629.56,13.86,1630.12Z" style="fill:red;fill-rule:evenodd"/><path d="M12.74,1646.46c.6.52-.06,6.63.32,10.51C12.53,1656.56,12.81,1650.24,12.74,1646.46Z" style="fill:red;fill-rule:evenodd"/><path d="M13.06,1664a32.63,32.63,0,0,1,.64,7A31.31,31.31,0,0,1,13.06,1664Z" style="fill:red;fill-rule:evenodd"/><path d="M6.61,1788.81c-.12,3.78-.45,6.1-1,7C6,1793.77,6,1789.17,6.61,1788.81Z" style="fill:red;fill-rule:evenodd"/><path d="M36.28,1570.62c.4-10.08.85-20.88.16-30.34.5-21.67,1.53-48.08.64-70,.58-7.7,0-16.52.32-24.49,1.42-37.88-.33-77.2-2.25-114.35v-8.17c-.47-11.29-1.39-22.36-1.78-35-.79-26-.13-57,.33-84,.25-.12.56.15.48-2.34.8-26.39,2.55-51.43,2.58-79.34,0-6.81-.53-13.21,0-19.84-.52-7.1-.8-16-1.13-24.49.43-16,0-41.58-1.29-54.85.45-9.24-.26-17.45-.32-26.83-.35-52.07-.22-120.62-.48-173.85-.55-4.84-.33-8.47-.65-14,.77-15,.08-43.19-.64-58.33.78-8.63.23-23.24.64-36.17.32-10.13,1.28-19.27.48-26.85.38-22.77-.48-46.88.65-72.33.46-10.33,1.22-20.76,1.61-31.51-.25-14.56,0-28.28-.32-43.17-.19-.18-.46.2-.48-1.17.29-8.69-1.06-22.47-.49-33.84-1.09-18.22-3-34.22-2.58-64.17-1.66-11.75-1.09-37.41-1.77-53.67.29-12.48.51-32.93,1.77-42,.18-8,.45-15.46.32-25.67.18-3,.59-4.34.65-8.17a57.43,57.43,0,0,1-.48-7c1.1-17.19,1-44.78.32-65.32.61-2.35-.15-7.85.48-10.51-.82-34.53-2.7-72.13-.8-107.35,2-5.77,3-15.52,5.15-17.5.35-2.94.4-8,1-9.34.51.56.63-1.66,1-2.33.86-10.39,2-30.55.81-42-1.57-5.69-3.16-12.63-4.84-3.5C32,45.5,28,59.87,27.25,31.62c-1.49-4.4-2.43-9.28-4.52-7-.94,7-2.4,10.53-3.22,21-.31-2.19-.41-.14-.81,0-.12,4.92.1,12.34-.64,12.84.2-12.36-1.08-14-1.29-23.34-1.52-10.39-4-6.42-5.32-14a40.7,40.7,0,0,0,.16-7c-1.08-2-1.41,2.43-2.1-3.51C8.86,12.7,9,15.72,8.87,20,7.14,23.42,6.6,35.4,5.8,45.62,5.78,75.84,3.65,95.7,4,121.46c-1,.72-.9,10.17-.48,15.17-.4,2.14-1.29.81-1.45,4.67.44,3.22.67-1.05,1.12-1.17.36,4.3.61,14.26.17,17.5.81,7.84.48,22.77,1.29,32.68a109.86,109.86,0,0,0-1.13,17.5c.57.14.91,1.91,1.29,3.49.93,22.3-1,34.34,0,56-.48,5.91-.51,15-.49,24.5-1.91,23.76-2,59.24-.64,88.68-1.66,8.17-.59,21.28-1,31.51-.61,16.23-2.06,32.37-1.13,49,0,1.92.45.65.49,2.33-.16,12.19.32,28.2.32,42,0,9.85-.62,19.33-.32,29.17.34,11.44,1,20,2.41,26.85-.06,8.88,1.85,19,1,28,.19,1.75.67,1.37.65,4.67a15.35,15.35,0,0,1-.33,3.5c.61-.1.46-1.3,1,0-.3-6.53-.24-9.64-.81-15.16a44.58,44.58,0,0,0,.17-4.67C5.13,565,4,550.19,3.39,533.34c-.56-16.22.2-33.09-.81-44.34.06-2.67.64-1.55.81-3.5-.57-6.07.19-11.43,0-18.67-.14-5.09-.92-9.38-1-15.16-.1-11.73.63-19.11.64-32.68,1.08-5.58.4-19,1.45-19.83.56,2.6-.66,8.27,0,11.66.17-2.32.28-5,.65-5.83C6.25,416.94,8.37,421.4,9,436.49c-.13,12.6.22,21.71.8,29.17-1,40.54-.42,97.42.81,137.69-.46,9.93-.52,18.28-.16,30.33-2.14,14,.64,47.54-.65,60.68,1.64,6,.85,25.32,0,31.5,1.12,2.34.69,11.71.33,17.5-.24,0-.51-4.92-.49,0a15.42,15.42,0,0,0,.33,3.5c-.36,2.11-.62,4.88-1.13,5.84-.12,4.32.27,5,.16,9.33a16,16,0,0,1-.81-4.66c-.22-6.27.31-7.15.49-10.51-.41.15-.51,2.23-.65-1.16,1-1.57-.25-7.49.65-10.5A23.66,23.66,0,0,0,9,739.87c-.14-4.57-.32-10-.48-14,0,1.24-.08,3-.17,1.16-1.85,41.13-1,77.21-.64,117.85a100.88,100.88,0,0,0-.65,10.5c.42,11.75.41,20.14,2.1,23.34,0-14.11-.39-25.23-.32-47.84.43-4.69,1-8.32,1.93-9.34.62,18.13-.51,37.56,0,54.85.08,2.48.31,3.49.32,5.83.12,14.45-.28,21.71-.48,31.5-.38,19-.05,39.38-.32,58.35-.06,4.18-.82,8.31-.16,12.83.43-10.3.61-21.68.32-29.17.56-10.69.75-29.1.81-42,1.34-25.57.32-44.74,1-75.83.86-1.58.69-5.33.81-10.51,1,.37,1.34-3.51,1.45-9.33-.24-3.24-.66,2-.81-1.17.3-3.34.61-6.49,1.29-7,0,3.1.06,6.66-.16,8.17.77-1.07.7-8.21,1.62-8.17.41,23.21,1.91,43.69,1.45,66.51-.45,3-1.1,4.54-1.45,8.17.67,2.44,1.05-6,1.77-7,.51,6.83.5,17.39,1.13,23.33-.24,1.38-.72,1-.65,4.67-.39,21.86.5,36.58.81,53.67.47,25.92-.34,49.33.32,78.18-.12,1.86-.79-.27-.64,3.49-.24,17.27.41,41.92-1.94,51.34.16,7.34-.45,9.21-.64,14,.13,2.17.26,4.27.32,7-.62,2.55-.2,10.41-.32,16.34-.14,6.62-.91,11.87-1.13,18.67a180.14,180.14,0,0,0,.48,22.17c.43,6.71.58,16.7,1.61,21,.27-2,.51-4.13.81-5.84-.61-7.61-1.83-16.36-1.77-26.82,0-6.59,1-10.73.64-17.52h.48c-.63-35.83,3.56-52.74,3.07-87.51.74-9,1.57-17.39,2.58-24.49-.18,12.18.76,16.23.64,28,2.35,29.72.5,70.18,1.29,103.85-.79,25.05.35,46.56.49,71.17-.92,3.52-.7,15.16-1,23.33.1,2.38.81.33.64,4.67-.12,17.56-2.68,18.87-3.22,31.5-.1,2.27.18,6.3.16,9.35,0,4.36-.38,12.8-.32,16.32.2,12.74,1.31,24.61,1.29,38.51,0,19.88-.18,42.4-.32,64.17-1,17.79.13,44.92-.81,67.67,1.05,17.75-.42,46.43,1.45,63,.05,3.06-.62.91-.48,4.66.79,10.06.44,21.47,1.77,28a50.74,50.74,0,0,1-.16,5.83c1.61,31.06,4,63.52,3.38,103.85-1.59,12.93-3.35,24.7-4.83,38.5-2,11.38-4.13,21.43-5,40.83,1,20.9,3.65,35.64,5.48,46.68.26,7.76,1.33,10.83,1.94,12.83.82,18.07,1.42,32.82,1.77,51.34.71,37.15-3.76,59.63-3.22,95.68a35.32,35.32,0,0,0-.49,4.67c1,2.18-.76,14.32.81,16.33,1-6.08,1.74-19.38,1.61-30.33.92-3.68.39-10.18.64-16.34.32-7.73,1.44-14.51,1.78-21,.1-1.87-.2-4-.16-4.66.22-5.2.9-9.46,1-16.34.15-15.36-.14-20.09-.48-33.83-.69-27.85-1.23-56-4.51-65.34,0-10.44-2.3-13.62-3.07-22.18-.17-11.78-.66-9.37-.48-21,3.62-23.21,8.26-39,10.8-70-.12-7.35-.17-14.41.49-18.67,2.44,33.08-.59,97.9,2.09,134.18.78-4,.32-9.11.32-14,0-26.87.23-56.5,0-88.68-.13-19.13-1.69-37.15-1.45-58.34.14-12.38.74-22,.65-36.17.25-.5.14-3.66.64-2.33-.31-16.53,2.62-30.36,1.13-45.5C36,1570.11,36,1573,36.28,1570.62ZM23.86,48c0,1.46-.32,1.17-.32,0a17,17,0,0,0-.16,3.49c-.33-.31-.15-4.34-.49-4.67-.27,1.88-.47,4.37-.64,7C21.6,47.25,23.32,43,23.86,48Zm-5,74.67c-1.54,1.08-1.77-15.07-1.61-18.67s.91-9.8,1.45-5.84C19.3,102.52,18.2,115.75,18.86,122.63ZM21,155.3c.37-.38.62.18.81,1.17-.75,6.44-.34,21-1.62,25.66C20.34,170.94,20.84,167.88,21,155.3Zm-2.58,37.33c.44-.85.32,2.32.64,2.34-.32,1.54-.37,5.06-.8,5.82C18.09,196.75,18.46,196.31,18.38,192.63Zm3.87,3.5c-.5,13.18-1.09,28-1,43.19.11,13.07,1.43,25.61,1,36.16-1-11.64-1-30-2.26-39.67.34-11.47,1.12-25.22.49-33.84C21.2,201,21.31,195.59,22.25,196.13Zm-4,8.17h.48c.15,4.85.41,13.63-.48,14A111,111,0,0,1,18.22,204.3Zm-.49,15.17c.15.91.37,1.25.65,1.17C18.47,225.79,17.51,224.66,17.73,219.47Zm-3.22,1.17c-.55,1.47-.07,5.71-.16,8.17-.18,4.77-.87,7.64-1,11.66-.17,7.41.76,10.29.65,19.83,0,3,.6,1.88.8,3.51,1.22,44.1,1.76,84.47.16,135.35-1.62-2.08-1-17-3.38-15.17-.6-27.59.67-48.3-1-71.18,0-15.94.73-29.07.81-47.84C11.53,245.65,11.65,226.51,14.51,220.64ZM9.83,302.31c.05,3.82-.5,3.38-.64,5.84.09,7.67-.38,11.23-.64,16.33-.35,12.22.82,37.13-.49,45.51.34-7.38-1.23-12-.8-19.83-2.09-10.69-2.92-21.92-2.1-45.52.17-5,.94-10.2,1.13-15.16.36-9.25-.27-18.65.64-23.34C9.14,269.21,8.35,294,9.83,302.31ZM22.41,279c.46,2.66.09,4.51.32,9.35C22,287.92,22.38,281.85,22.41,279Zm1.13,173.86c.05,15.65.61,30.8.32,47.84-.26,15.8-1.3,24.28-1.13,44.33.05,5.88.65,9.69.81,18.68.18,10.05-.47,19.71.64,26.83-.28,11.23-.78,22.13.17,31.51-1.27-2.92-2.43-16.7-3.39-25.68.29-50.12-.69-98.62,2.1-143.51ZM24.67,686.2c.23.25,0,3.47.32,3.49-.55,11.89.23,21.43.32,30.34.05,4.24-.43,8.51-.48,14-.07,7.32.82,16.92-.32,19.83.69,6.81-.12,19.29.64,26.84-.8-.35-1.44-11.89-2.26-4.66.33,3.09,1.09,3.05,1.46,5.83,0,7.3-.26,12.12-1.13,12.84-1.16-9.78-1.4-38.7-.65-51.35-.53-8.62-.07-15.65.16-24.5-.34-.55-.3,1.67-.32,3.5-.76-10.83,1.78-22.23,1.45-33.84C24,686.51,24.63,688.62,24.67,686.2ZM24,798.2c-.09,2.43-.34,3.78-.48,5.84-.47-.52-.74-2.46-.81-5.84C23.07,794.94,23.56,796.5,24,798.2Zm7.26,60.67c.07,16.8.42,34,.64,50.18.32,23.2-.32,53.61.65,77-.37,8.72-.83,28.33.32,35-.31,17.8.68,35.24,1.13,51.34-.47,21.79.69,45.73-.16,70-.19,5.47-.93,9.57-1.13,15.16-.18,4.87,0,10.82-.16,16.34-.27,8-1.07,15.64-1.29,23.34-.1,3.53.12,8.21,0,11.67-.08,2.29-.53,3.74-.65,5.83-.36,6.48-.08,14.43-.64,19.83.44,19.18.26,36.52.64,59.51-.88-10.31-1.65-21.49-3.54-24.5,0-11.59-.28-22.45,0-33.84.2-8.21.46-11,.32-24.51-.07-6.08-.45-11.84-.49-17.5-.09-15.12.49-30.68.49-45.5,0-12.65-.66-25.26.16-35-.42-20.32.7-45.46-.81-63,.65-14.4-.27-29.69-.32-42a288.13,288.13,0,0,0,2.74-47.84c-.44-16.81-3.05-26.66-3.87-39.67.64-7.1-.25-12.28-.16-19.84.13-11.39,1.26-24.32.65-40.84,1.67,2.29,2.93,2.27,4.19,5.83C30.51,864.24,30.53,858.89,31.28,858.87Zm-.65,443.39c.38.37.61,1.85,1.13,1.16-.61,6.12.34,13.42.81,18.67.17,17.4.92,30.64,1.13,47.84-.2,3.61-.57,6-.81,9.34,0,11.92-.27,23.81-.32,35-.06,12.13.34,24.78.32,36.17,0,12.65-1.26,25.5-.16,36.17-.23,12.62-1.2,30.08-.65,40.84-.86,10.5-.56,28.21-1.29,42,.62,26.81,2.87,43.72,1.46,73.5-1-10.39-.25-26.24-1.46-33.84.27-11.15-.9-21.41-1.29-29.16-.33-6.66-.31-15.15-.64-22.18-.4-8.57-1.08-13.38-1.13-26.83,0-5.34,0-10.4,0-16.33,0-12.37.89-26.19.81-36.18,0-2.71-.35-5.49-.33-8.17.07-6.31.79-14,.81-21,0-1.07-.34-4.69-.32-5.84.07-3.46.53-7.17.64-10.49.77-22.48.41-52.81.65-80.51.05-5.64.37-10.77.32-16.34,0-3.73-.37-7.84-.32-11.66C30.08,1316.73,31.09,1310.19,30.63,1302.26Zm4.68,273c0,3.2.27,2.35,0,4.68C34.69,1580.88,34.69,1574.37,35.31,1575.28Z" style="fill:red;fill-rule:evenodd"/><path d="M6.93,626.68c-.09-2.42-.34-3.77-.48-5.83.53-5.39-.6-16.76.32-21,.2,16.43.21,29,.16,44.34C6.31,641.67,6.59,626.9,6.93,626.68Z" style="fill:red;fill-rule:evenodd"/><path d="M6.45,655.85c0-4.18-.49-4.27-.49-8.17.54,1.55.57,6.82,1.13,8.17C7.06,658.86,6.82,654.25,6.45,655.85Z" style="fill:red;fill-rule:evenodd"/><path d="M11.77,1616.13c.82,5.7.4,20.47,1,28C11.84,1636.56,12.26,1625,11.77,1616.13Z" style="fill:red;fill-rule:evenodd"/></svg>