
<?xml version="1.0" encoding="utf-8"?>
<!-- Generator: Adobe Illustrator 25.4.1, SVG Export Plug-In . SVG Version: 6.00 Build 0)  -->
<svg version="1.1" id="Layer_1" xmlns="http://www.w3.org/2000/svg" xmlns:xlink="http://www.w3.org/1999/xlink" x="0px" y="0px"
	 viewBox="0 0 1440 525.9" style="enable-background:new 0 0 1440 525.9;" xml:space="preserve">
<style type="text/css">
	.st0{fill:#EF4540;}
</style>
<path class="st0" d="M0,461.9l30-16c30-16,90-48,150-53.3c60-5.7,120,16.3,180,37.3s120,43,180,37.3c60-5.3,120-37.3,180-74.6
	c60-37.7,120-79.7,180-90.7s120,11,180,48s120,91,180,96s120-37,150-58.7l30-21.3V0h-30c-30,0-90,0-150,0s-120,0-180,0S960,0,900,0
	S780,0,720,0S600,0,540,0S420,0,360,0S240,0,180,0S60,0,30,0H0V461.9z"/>
</svg>
