<?xml version="1.0" standalone="no"?><svg xmlns="http://www.w3.org/2000/svg" viewBox="0 0 1440 320"><path fill="#ef4540" fill-opacity="1" d="M0,256L30,234.7C60,213,120,171,180,154.7C240,139,300,149,360,133.3C420,117,480,75,540,85.3C600,96,660,160,720,181.3C780,203,840,181,900,149.3C960,117,1020,75,1080,69.3C1140,64,1200,96,1260,117.3C1320,139,1380,149,1410,154.7L1440,160L1440,0L1410,0C1380,0,1320,0,1260,0C1200,0,1140,0,1080,0C1020,0,960,0,900,0C840,0,780,0,720,0C660,0,600,0,540,0C480,0,420,0,360,0C300,0,240,0,180,0C120,0,60,0,30,0L0,0Z"></path></svg>
