<svg xmlns="http://www.w3.org/2000/svg" viewBox="0 0 1440 320"><path fill="#ef4540" fill-opacity="1" d="M0,256L30,240C60,224,120,192,180,186.7C240,181,300,203,360,224C420,245,480,267,540,261.3C600,256,660,224,720,186.7C780,149,840,107,900,96C960,85,1020,107,1080,144C1140,181,1200,235,1260,240C1320,245,1380,203,1410,181.3L1440,160L1440,0L1410,0C1380,0,1320,0,1260,0C1200,0,1140,0,1080,0C1020,0,960,0,900,0C840,0,780,0,720,0C660,0,600,0,540,0C480,0,420,0,360,0C300,0,240,0,180,0C120,0,60,0,30,0L0,0Z"></path></svg>
